<?xml version="1.0" encoding="UTF-8"?><svg id="Layer_1" xmlns="http://www.w3.org/2000/svg" viewBox="0 0 235 235"><defs><style>.cls-1{fill:#003498;stroke-width:0px;}</style></defs><path class="cls-1" d="M114.09,201.969c-1.866,0-3.377,1.513-3.377,3.379s1.511,3.379,3.377,3.379,3.38-1.513,3.38-3.379c0-1.866-1.514-3.379-3.38-3.379Z"/><path class="cls-1" d="M149.214,27.562c-8.242-10.87-18.114-16.739-30.191-17.941-3.301-.329-6.774-.322-10.075.024-11.972,1.257-21.774,7.117-29.965,17.917-9.427,12.433-7.43,26.653-5.503,40.405.3,2.101.591,4.201.848,6.29,1.204,10.045,3.499,21.941,9.369,31.654v9.33l-41.744,19.257c-.997.453-24.425,11.318-25.804,30.038-.007.083-.01.166-.01.249v57.457c0,1.866,1.513,3.378,3.38,3.378s3.377-1.512,3.377-3.378v-57.328c1.185-14.649,21.649-24.174,21.871-24.275l20.218-9.327c2.828-1.244,5.687-2.529,8.573-3.855,3.354-1.542,6.641-3.093,9.859-4.648v8.862c0,.88.343,1.726.959,2.357l26.344,27.051v30.764c0,1.865,1.511,3.378,3.378,3.378s3.38-1.513,3.38-3.378v-30.836s24.478-27.034,24.527-27.09c.797-.902.718-2.095.826-3.214.042-.419.129-7.862.033-7.906l2.886,1.323c1.153-1.954,2.551-3.798,4.228-5.492l-7.168-3.288v-6.562c6.995-9.824,9.651-22.753,11.062-34.521.252-2.095.548-4.2.843-6.306,1.928-13.747,3.921-27.963-5.501-40.39ZM136.054,130.427l-21.97,24.262c-.051,0-.094.012-.143.014l-23.49-24.119v-16.201c5.083,4.788,11.761,8.307,20.592,9.656,2.173.332,4.321.293,6.487-.055,7.708-1.244,13.757-4.068,18.524-7.948v14.39ZM147.167,73.451c-3.336,27.809-12.522,40.928-30.716,43.864-1.766.289-2.782.292-4.388.045-18.148-2.771-27.721-16.313-31.033-43.912-.257-2.133-1.021-7.57-1.101-8.143,2.364.63,6.109,1.369,10.687,1.369,9.077,0,21.381-2.913,32.488-15.383,5.053,5.172,14.34,9.822,26.309,3.793-.261,3.879-1.991,16.227-2.247,18.367ZM147.995,48.183s-.007.003-.01.004c-13.747,8.115-21.17-2.765-21.958-4.018-.584-.944-1.591-1.541-2.701-1.598-1.125-.068-2.175.432-2.846,1.308-17.96,23.266-39.779,14.693-40.697,14.317-.246-.103-.502-.165-.755-.206-.954-9.58-.566-18.559,5.339-26.347,7.002-9.23,15.272-14.228,25.288-15.279,2.834-.298,5.855-.304,8.694-.021,10.103,1.006,18.44,6.01,25.482,15.3,3.646,4.81,5.169,10.079,5.593,15.659-.577.375-1.092.684-1.429.883Z"/><path class="cls-1" d="M206.818,119.465c-.342-.202-3.458-1.966-8.024-1.966-3.395,0-6.691.96-9.897,2.92-1.262.836-2.681,1.345-4.23,1.516-2.366.263-4.801-.304-6.893-1.585-3.102-1.892-6.395-2.851-9.79-2.851-4.565,0-7.683,1.764-7.977,1.938-21.031,11.966-8.736,43.331-6.31,48.969-.495,7.173-1.973,42.331,16.242,46.972,1.023.26,2.097.027,2.925-.622.822-.652,1.296-1.652,1.282-2.703-.088-5.848.822-22.176,5.995-27.434,1.787-1.816,4.73-1.81,6.502-.011,5.166,5.249,6.073,21.591,5.985,27.445-.013,1.052.461,2.052,1.285,2.702.797.628,1.907.881,2.923.623,18.213-4.641,16.739-39.799,16.242-46.972,2.423-5.638,14.719-37.001-6.263-48.941ZM206.587,166.397c-.243.528-.347,1.113-.3,1.693.686,8.34.523,30.567-7.039,38.296-.406-7.649-1.972-20.596-7.795-26.517-1.45-1.477-3.131-2.486-4.951-2.988-1.762-.487-3.791-.524-5.58-.152-2.082.432-3.964,1.496-5.591,3.152-5.825,5.926-7.394,18.856-7.8,26.5-7.549-7.732-7.722-29.953-7.041-38.292.046-.581-.056-1.164-.302-1.693-.142-.311-14.165-31.228,3.204-41.111.02-.01,1.859-1.027,4.593-1.027,2.14,0,4.251.627,6.276,1.862,3.362,2.058,7.313,2.96,11.151,2.532,2.62-.289,5.045-1.163,7.104-2.53,2.026-1.237,4.139-1.864,6.279-1.864,2.727,0,4.608,1.036,4.643,1.055,17.275,9.83,3.294,40.773,3.151,41.085Z"/></svg>