<svg width="48" height="48" viewBox="0 0 48 48" fill="none" xmlns="http://www.w3.org/2000/svg">
<circle cx="24" cy="24" r="23.5" stroke="black"/>
<g clip-path="url(#clip0_25_102)">
<path d="M23.8628 24.3449C27.6563 24.3449 30.7319 21.2693 30.7319 17.4753C30.7319 13.6824 27.6563 10.6057 23.8628 10.6057C20.0689 10.6057 16.9938 13.6824 16.9938 17.4753C16.9938 21.2693 20.0689 24.3449 23.8628 24.3449Z" fill="#4B4B4B"/>
<path d="M32.6599 30.9629C32.3532 29.1258 30.7956 26.5865 29.6795 25.3977C29.3777 25.076 28.8536 25.2099 28.6695 25.3238C27.2692 26.1872 25.6254 26.6909 23.8628 26.6909C22.1002 26.6909 20.4564 26.1872 19.0561 25.3238C18.872 25.2099 18.348 25.076 18.0461 25.3977C16.9301 26.5865 15.3725 29.1258 15.0657 30.9629C14.3122 35.4859 19.144 37.12 23.8628 37.12C28.5817 37.12 33.4135 35.4859 32.6599 30.9629Z" fill="#4B4B4B"/>
</g>
<defs>
<clipPath id="clip0_25_102">
<rect width="26.5143" height="26.5143" fill="white" transform="translate(10.6057 10.6057)"/>
</clipPath>
</defs>
</svg>
